<svg width="56" height="56" viewBox="0 0 56 56" fill="none" xmlns="http://www.w3.org/2000/svg">
<path d="M55.2301 23.6074V27.7671H51.0705V23.6074H55.2301Z" fill="#CC0062"/>
<path d="M55.2301 19.444V23.6074H51.0705V19.444H55.2301Z" fill="#CC0062"/>
<path d="M55.2301 15.2835V19.444H51.0705V15.2835H55.2301Z" fill="#CC0062"/>
<path d="M55.2301 11.1186V15.2835H51.0705V11.1186H55.2301Z" fill="#CC0062"/>
<path d="M51.0907 27.7671V31.9305H46.931V27.7671L51.0705 27.7671L51.0907 27.7671Z" fill="#CC0062"/>
<path d="M51.0705 23.6074V27.7671H46.9064V23.6074H51.0705Z" fill="#E6007C"/>
<path d="M51.0705 19.444V23.6074H46.9064V19.444H51.0705Z" fill="#E6007C"/>
<path d="M51.0705 15.2835V19.444H46.9064V15.2835H51.0705Z" fill="#E6007C"/>
<path d="M51.0705 11.1186V15.2835H46.9064V11.1186H51.0705Z" fill="#E6007C"/>
<path d="M51.0705 6.95894L51.0705 11.1186H46.9064V6.95894H51.0705Z" fill="#CC0062"/>
<path d="M46.931 31.9305L46.931 36.0909H42.7669V31.9305L46.931 31.9305Z" fill="#CC0062"/>
<path d="M46.931 27.7671V31.9305L42.7669 31.9305V27.7671L46.9064 27.7671L46.931 27.7671Z" fill="#E6007C"/>
<path d="M46.9064 23.6074V27.7671H42.7467V23.6074H46.9064Z" fill="#E6007C"/>
<path d="M46.9064 19.444V23.6074H42.7467V19.444H46.9064Z" fill="#E6007C"/>
<path d="M46.9064 15.2835V19.444H42.7467V15.2835H46.9064Z" fill="#E6007C"/>
<path d="M46.9064 11.1186V15.2835H42.7467V11.1186H46.9064Z" fill="#E6007C"/>
<path d="M46.9064 6.95894V11.1186H42.7467V6.95894H46.9064Z" fill="#E6007C"/>
<path d="M46.9064 2.8L46.9064 6.95894H42.7467V2.8H46.9064Z" fill="#CC0062"/>
<path d="M42.7669 36.0909L42.7668 40.2506H38.6071V36.0909L42.7669 36.0909Z" fill="#CC0062"/>
<path d="M42.7669 31.9305V36.0909L38.6071 36.0909V31.9305H42.7669Z" fill="#E6007C"/>
<path d="M42.7669 27.7671V31.9305H38.6071V27.7671L42.7467 27.7671L42.7669 27.7671Z" fill="#E6007C"/>
<path d="M42.7467 23.6074V27.7671H38.5869V23.6074H42.7467Z" fill="#FF3998"/>
<path d="M42.7467 19.444V23.6074H38.5869V19.444H42.7467Z" fill="#FF3998"/>
<path d="M42.7467 15.2835V19.444H38.5869V15.2835H42.7467Z" fill="#FF3998"/>
<path d="M42.7467 11.1186V15.2835H38.5869V11.1186H42.7467Z" fill="#FF3998"/>
<path d="M42.7467 6.95894V11.1186H38.5869V6.95894H42.7467Z" fill="#E6007C"/>
<path d="M42.7467 2.8V6.95894H38.5869V2.8H42.7467Z" fill="#CC0062"/>
<path d="M38.6071 40.2506L38.6071 44.4155H34.4437V40.2506L38.6071 40.2506Z" fill="#CC0062"/>
<path d="M38.6071 36.0909V40.2506L34.4437 40.2506V36.0909H38.6071Z" fill="#E6007C"/>
<path d="M38.6071 31.9305V36.0909H34.4437V31.9305H38.6071Z" fill="#E6007C"/>
<path d="M38.6071 27.7671V31.9305H34.4437V27.7671L38.5869 27.7671L38.6071 27.7671Z" fill="#FF3998"/>
<path d="M38.5869 23.6074V27.7671H34.4228V23.6074H38.5869Z" fill="#FF3998"/>
<path d="M38.5869 19.444V23.6074H34.4228V19.444H38.5869Z" fill="#FF3998"/>
<path d="M38.5869 15.2835V19.444H34.4228V15.2835H38.5869Z" fill="#FF3998"/>
<path d="M38.5869 11.1186V15.2835H34.4228V11.1186H38.5869Z" fill="#FF3998"/>
<path d="M38.5869 6.95894V11.1186H34.4228V6.95894H38.5869Z" fill="#CC0062"/>
<path d="M34.4437 44.4155L34.4438 48.5752H30.2833V44.4155L34.4437 44.4155Z" fill="#CC0062"/>
<path d="M34.4437 40.2506V44.4155L30.2833 44.4155V40.2506H34.4437Z" fill="#E6007C"/>
<path d="M34.4437 36.0909V40.2506H30.2833V36.0909H34.4437Z" fill="#E6007C"/>
<path d="M34.4437 31.9305V36.0909H30.2833V31.9305H34.4437Z" fill="#FF3998"/>
<path d="M34.4437 27.7671V31.9305H30.2833V27.7671L34.4228 27.7671L34.4437 27.7671Z" fill="#FF3998"/>
<path d="M34.4228 23.6074V27.7671H30.2624V23.6074H34.4228Z" fill="#FF3998"/>
<path d="M34.4228 19.444V23.6074H30.2624V19.444H34.4228Z" fill="#FF3998"/>
<path d="M34.4228 15.2835V19.444H30.2624V15.2835H34.4228Z" fill="#FF3998"/>
<path d="M34.4228 11.1186V15.2835H30.2624V11.1186H34.4228Z" fill="#CC0062"/>
<path d="M30.2706 48.5752V52.7394H26.1116V48.5752H30.2706Z" fill="#CC0062"/>
<path d="M30.2706 44.4155V48.5752H26.1116V44.4155H30.2706Z" fill="#E6007C"/>
<path d="M30.2706 40.2506V44.4155H26.1116V40.2506H30.2706Z" fill="#E6007C"/>
<path d="M30.2706 36.0909V40.2506H26.1116V36.0909H30.2706Z" fill="#FF3998"/>
<path d="M30.2706 31.9305V36.0909H26.1116V31.9305H30.2706Z" fill="#FF3998"/>
<path d="M30.2706 27.7671V31.9305H26.1116V27.7671H30.2512L30.2624 27.7671L30.2706 27.7671Z" fill="#FF3998"/>
<path d="M30.2512 23.6074L30.2512 27.7671L26.0907 27.7671V23.6074H30.2512Z" fill="#FF3998"/>
<path d="M30.2512 19.444V23.6074H26.0907V19.444H30.2512Z" fill="#FF3998"/>
<path d="M30.2512 15.2835V19.444H26.0907V15.2835H30.2512Z" fill="#CC0062"/>
<path d="M26.1116 44.4155V48.5752L21.952 48.5752V44.4155H26.1116Z" fill="#CC0062"/>
<path d="M26.1116 40.2506V44.4155H21.952V40.2506H26.1116Z" fill="#E6007C"/>
<path d="M26.1116 36.0909V40.2506H21.952V36.0909H26.1116Z" fill="#FF3998"/>
<path d="M26.1116 31.9305V36.0909H21.952V31.9305H26.1116Z" fill="#FF3998"/>
<path d="M26.1116 27.7671V31.9305H21.952V27.7671L26.0907 27.7671L26.1116 27.7671Z" fill="#FF3998"/>
<path d="M26.0907 23.6074V27.7671H21.9266V23.6074H26.0907Z" fill="#FF3998"/>
<path d="M26.0907 19.444V23.6074H21.9266V19.444H26.0907Z" fill="#FF3998"/>
<path d="M26.0907 15.2835V19.444H21.9266V15.2835H26.0907Z" fill="#E6007C"/>
<path d="M26.0907 11.1186L26.0907 15.2835H21.9266V11.1186H26.0907Z" fill="#CC0062"/>
<path d="M21.952 40.2506V44.4155L17.7871 44.4155V40.2506H21.952Z" fill="#CC0062"/>
<path d="M21.952 36.0909V40.2506H17.7871V36.0909H21.952Z" fill="#E6007C"/>
<path d="M21.952 31.9305V36.0909H17.7871V31.9305H21.952Z" fill="#FF3998"/>
<path d="M21.952 27.7671V31.9305H17.7871V27.7671L21.9266 27.7671L21.952 27.7671Z" fill="#FF3998"/>
<path d="M21.9266 23.6074V27.7671H17.7669V23.6074H21.9266Z" fill="#FF3998"/>
<path d="M21.9266 19.444V23.6074H17.7669V19.444H21.9266Z" fill="#FF3998"/>
<path d="M21.9266 15.2835V19.444H17.7669V15.2835H21.9266Z" fill="#FF3998"/>
<path d="M21.9266 11.1186V15.2835H17.7669V11.1186H21.9266Z" fill="#E6007C"/>
<path d="M21.9266 6.95894L21.9266 11.1186H17.7669V6.95894H21.9266Z" fill="#CC0062"/>
<path d="M17.7871 36.0909V40.2506L13.6274 40.2506V36.0909H17.7871Z" fill="#CC0062"/>
<path d="M17.7871 31.9305V36.0909H13.6274V31.9305H17.7871Z" fill="#E6007C"/>
<path d="M17.7871 27.7671V31.9305H13.6274V27.7671L17.7669 27.7671L17.7871 27.7671Z" fill="#FF3998"/>
<path d="M17.7669 23.6074V27.7671H13.6035V23.6074H17.7669Z" fill="#FF3998"/>
<path d="M17.7669 19.444V23.6074H13.6035V19.444H17.7669Z" fill="#FDAEFF"/>
<path d="M17.7669 15.2835V19.444H13.6035V15.2835H17.7669Z" fill="#FDAEFF"/>
<path d="M17.7669 11.1186V15.2835H13.6035V11.1186H17.7669Z" fill="#FF3998"/>
<path d="M17.7669 6.95894V11.1186H13.6035V6.95894H17.7669Z" fill="#FF3998"/>
<path d="M17.7669 2.8L17.7669 6.95894H13.6035V2.8H17.7669Z" fill="#CC0062"/>
<path d="M13.6274 31.9305V36.0909L9.46326 36.0909V31.9305H13.6274Z" fill="#CC0062"/>
<path d="M13.6274 27.7671V31.9305H9.46326V27.7671L13.6035 27.7671L13.6274 27.7671Z" fill="#FF3998"/>
<path d="M13.6035 23.6074V27.7671H9.44384V23.6074H13.6035Z" fill="#FF3998"/>
<path d="M13.6035 19.444V23.6074H9.44384V19.444H13.6035Z" fill="#FDAEFF"/>
<path d="M13.6035 15.2835V19.444H9.44384V15.2835H13.6035Z" fill="#FDAEFF"/>
<path d="M13.6035 11.1186V15.2835H9.44384V11.1186H13.6035Z" fill="#FF3998"/>
<path d="M13.6035 6.95894V11.1186H9.44384V6.95894H13.6035Z" fill="#FF3998"/>
<path d="M13.6035 2.8V6.95894H9.44384V2.8H13.6035Z" fill="#CC0062"/>
<path d="M9.46326 27.7671V31.9305L5.30359 31.9305V27.7671L9.44384 27.7671L9.46326 27.7671Z" fill="#CC0062"/>
<path d="M9.44384 23.6074V27.7671H5.28335V23.6074H9.44384Z" fill="#FF3998"/>
<path d="M9.44384 19.444V23.6074H5.28335V19.444H9.44384Z" fill="#FF3998"/>
<path d="M9.44384 15.2835V19.444H5.28335V15.2835H9.44384Z" fill="#FF3998"/>
<path d="M9.44384 11.1186V15.2835H5.28335V11.1186H9.44384Z" fill="#FF3998"/>
<path d="M9.44384 6.95894V11.1186H5.28335V6.95894H9.44384Z" fill="#CC0062"/>
<path d="M5.28335 23.6074V27.7671H1.12V23.6074H5.28335Z" fill="#CC0062"/>
<path d="M5.28335 19.444V23.6074H1.12V19.444H5.28335Z" fill="#CC0062"/>
<path d="M5.28335 15.2835V19.444H1.12V15.2835H5.28335Z" fill="#CC0062"/>
<path d="M5.28335 11.1186V15.2835H1.12V11.1186H5.28335Z" fill="#CC0062"/>
</svg>
